<?xml version="1.0" encoding="utf-8" standalone="no"?>
<!DOCTYPE svg PUBLIC "-//W3C//DTD SVG 1.1//EN"
  "http://www.w3.org/Graphics/SVG/1.1/DTD/svg11.dtd">
<!-- Created with matplotlib (https://matplotlib.org/) -->
<svg height="648pt" version="1.1" viewBox="0 0 1152 648" width="1152pt" xmlns="http://www.w3.org/2000/svg" xmlns:xlink="http://www.w3.org/1999/xlink">
 <metadata>
  <rdf:RDF xmlns:cc="http://creativecommons.org/ns#" xmlns:dc="http://purl.org/dc/elements/1.1/" xmlns:rdf="http://www.w3.org/1999/02/22-rdf-syntax-ns#">
   <cc:Work>
    <dc:type rdf:resource="http://purl.org/dc/dcmitype/StillImage"/>
    <dc:date>2021-05-03T14:31:10.494750</dc:date>
    <dc:format>image/svg+xml</dc:format>
    <dc:creator>
     <cc:Agent>
      <dc:title>Matplotlib v3.3.2, https://matplotlib.org/</dc:title>
     </cc:Agent>
    </dc:creator>
   </cc:Work>
  </rdf:RDF>
 </metadata>
 <defs>
  <style type="text/css">*{stroke-linecap:butt;stroke-linejoin:round;}</style>
 </defs>
 <g id="figure_1">
  <g id="patch_1">
   <path d="M 0 648 
L 1152 648 
L 1152 0 
L 0 0 
z
" style="fill:#ffffff;"/>
  </g>
  <g id="axes_1">
   <g id="patch_2">
    <path d="M 144 567 
L 1036.8 567 
L 1036.8 77.76 
L 144 77.76 
z
" style="fill:#ffffff;"/>
   </g>
   <g id="matplotlib.axis_1">
    <g id="xtick_1">
     <g id="line2d_1">
      <defs>
       <path d="M 0 0 
L 0 3.5 
" id="mecdd7792c5" style="stroke:#000000;stroke-width:0.8;"/>
      </defs>
      <g>
       <use style="stroke:#000000;stroke-width:0.8;" x="184.581818" xlink:href="#mecdd7792c5" y="567"/>
      </g>
     </g>
     <g id="text_1">
      <!-- 10时0分 -->
      <g transform="translate(170.583756 613.452581)rotate(-45)scale(0.12 -0.12)">
       <defs>
        <path d="M 42.4375 77.296875 
L 42.4375 0 
L 26.5625 0 
L 26.5625 59.515625 
Q 23.640625 56.984375 18.5625 54.953125 
Q 13.484375 52.9375 9.234375 52.4375 
L 9.234375 65.96875 
Q 22.609375 69.875 32.375 77.296875 
z
" id="MicrosoftYaHei-Bold-49"/>
        <path d="M 3.8125 36.578125 
Q 3.8125 56.203125 11.03125 66.546875 
Q 18.265625 76.90625 31.9375 76.90625 
Q 58.015625 76.90625 58.015625 38.328125 
Q 58.015625 19.34375 50.921875 9.015625 
Q 43.84375 -1.3125 30.46875 -1.3125 
Q 3.8125 -1.3125 3.8125 36.578125 
z
M 19.78125 36.96875 
Q 19.78125 10.796875 30.953125 10.796875 
Q 41.9375 10.796875 41.9375 37.75 
Q 41.9375 64.796875 31.25 64.796875 
Q 19.78125 64.796875 19.78125 36.96875 
z
" id="MicrosoftYaHei-Bold-48"/>
        <path d="M 47.46875 66.265625 
L 76.375 66.265625 
L 76.375 82.671875 
L 90.328125 82.671875 
L 90.328125 66.265625 
L 98.53125 66.265625 
L 98.53125 53.265625 
L 90.328125 53.265625 
L 90.328125 4.9375 
Q 90.328125 -3.265625 86.671875 -7.46875 
Q 83.015625 -11.671875 76.53125 -11.90625 
Q 70.0625 -12.15625 57.328125 -12.15625 
Q 55.765625 -3.265625 54 2.09375 
Q 67.875 1.703125 69.234375 1.703125 
Q 76.375 1.703125 76.375 9.125 
L 76.375 53.265625 
L 47.46875 53.265625 
z
M 6.15625 -7.765625 
L 6.15625 76.515625 
L 44.625 76.515625 
L 44.625 -7.171875 
L 31.734375 -7.171875 
L 31.734375 -0.4375 
L 19.046875 -0.4375 
L 19.046875 -7.765625 
z
M 31.734375 63.625 
L 19.046875 63.625 
L 19.046875 44.28125 
L 31.734375 44.28125 
z
M 19.046875 12.453125 
L 31.734375 12.453125 
L 31.734375 31.78125 
L 19.046875 31.78125 
z
M 56.0625 48 
Q 62.703125 39.703125 73.640625 24.359375 
L 61.8125 16.65625 
Q 52.9375 31.390625 45.90625 41.265625 
z
" id="MicrosoftYaHei-Bold-26102"/>
        <path d="M 99.21875 47.3125 
Q 95.125 42.234375 89.84375 34.8125 
Q 86.234375 37.640625 82.859375 40.671875 
Q 81.546875 9.46875 80.8125 2.96875 
Q 80.078125 -3.515625 75.96875 -7.046875 
Q 71.875 -10.59375 64.5 -10.59375 
Q 54.4375 -10.59375 45.515625 -10.296875 
Q 44.625 -2.203125 43.453125 4.4375 
Q 56.15625 3.375 61.8125 3.375 
Q 65.1875 3.375 66.09375 6.375 
Q 67 9.375 67.578125 30.90625 
L 43.453125 30.90625 
Q 42.625 17.1875 39.515625 9.859375 
Q 36.421875 2.546875 29.796875 -3.359375 
Q 23.1875 -9.28125 13.1875 -13.625 
Q 7.125 -5.515625 3.03125 -1.21875 
Q 11.71875 2.25 17.359375 6.46875 
Q 23 10.6875 25.46875 15.453125 
Q 27.9375 20.21875 28.765625 30.90625 
L 14.84375 30.90625 
L 14.84375 38.671875 
Q 12.40625 36.8125 9.859375 35.109375 
Q 5.375 41.453125 0.984375 46.140625 
Q 23.046875 61.671875 34.28125 83.0625 
L 47.359375 77.390625 
Q 37.15625 58.15625 21.734375 44.390625 
L 78.859375 44.390625 
Q 63.875 58.84375 54.109375 76.609375 
L 66.21875 82.859375 
Q 78.71875 61.28125 99.21875 47.3125 
z
" id="MicrosoftYaHei-Bold-20998"/>
       </defs>
       <use xlink:href="#MicrosoftYaHei-Bold-49"/>
       <use x="61.669922" xlink:href="#MicrosoftYaHei-Bold-48"/>
       <use x="123.339844" xlink:href="#MicrosoftYaHei-Bold-26102"/>
       <use x="223.339844" xlink:href="#MicrosoftYaHei-Bold-48"/>
       <use x="285.009766" xlink:href="#MicrosoftYaHei-Bold-20998"/>
      </g>
     </g>
    </g>
    <g id="xtick_2">
     <g id="line2d_2">
      <g>
       <use style="stroke:#000000;stroke-width:0.8;" x="205.043239" xlink:href="#mecdd7792c5" y="567"/>
      </g>
     </g>
     <g id="text_2">
      <!-- 10时3分 -->
      <g transform="translate(191.045176 613.452581)rotate(-45)scale(0.12 -0.12)">
       <defs>
        <path d="M 7.71875 16.453125 
Q 15.28125 10.796875 25.390625 10.796875 
Q 31.78125 10.796875 35.546875 13.625 
Q 39.3125 16.453125 39.3125 21.6875 
Q 39.3125 27.046875 34.84375 29.875 
Q 30.375 32.71875 22.3125 32.71875 
L 15.578125 32.71875 
L 15.578125 44.875 
L 21.78125 44.875 
Q 37.015625 44.875 37.015625 55.125 
Q 37.015625 64.796875 25.34375 64.796875 
Q 17.71875 64.796875 10.546875 59.8125 
L 10.546875 72.859375 
Q 18.359375 76.90625 28.953125 76.90625 
Q 39.703125 76.90625 46.390625 71.953125 
Q 53.078125 67 53.078125 58.203125 
Q 53.078125 43.359375 38.03125 39.546875 
L 38.03125 39.3125 
Q 45.953125 38.421875 50.6875 33.515625 
Q 55.421875 28.609375 55.421875 21.578125 
Q 55.421875 10.796875 47.53125 4.734375 
Q 39.65625 -1.3125 26.515625 -1.3125 
Q 14.84375 -1.3125 7.71875 2.546875 
z
" id="MicrosoftYaHei-Bold-51"/>
       </defs>
       <use xlink:href="#MicrosoftYaHei-Bold-49"/>
       <use x="61.669922" xlink:href="#MicrosoftYaHei-Bold-48"/>
       <use x="123.339844" xlink:href="#MicrosoftYaHei-Bold-26102"/>
       <use x="223.339844" xlink:href="#MicrosoftYaHei-Bold-51"/>
       <use x="285.009766" xlink:href="#MicrosoftYaHei-Bold-20998"/>
      </g>
     </g>
    </g>
    <g id="xtick_3">
     <g id="line2d_3">
      <g>
       <use style="stroke:#000000;stroke-width:0.8;" x="225.50466" xlink:href="#mecdd7792c5" y="567"/>
      </g>
     </g>
     <g id="text_3">
      <!-- 10时6分 -->
      <g transform="translate(211.506597 613.452581)rotate(-45)scale(0.12 -0.12)">
       <defs>
        <path d="M 52.78125 61.53125 
Q 47.015625 64.796875 40.234375 64.796875 
Q 31.5 64.796875 26.25 57.9375 
Q 21 51.078125 21 40.1875 
L 21.296875 40.1875 
Q 26.703125 48.484375 37.359375 48.484375 
Q 46.875 48.484375 52.46875 41.96875 
Q 58.0625 35.453125 58.0625 25 
Q 58.0625 13.578125 50.78125 6.125 
Q 43.5 -1.3125 32.171875 -1.3125 
Q 19.1875 -1.3125 12.28125 8.0625 
Q 5.375 17.4375 5.375 33.734375 
Q 5.375 52.9375 14.328125 64.921875 
Q 23.296875 76.90625 39.265625 76.90625 
Q 47.859375 76.90625 52.78125 74.859375 
z
M 21.53125 24.859375 
Q 21.53125 19 24.453125 14.890625 
Q 27.390625 10.796875 32.171875 10.796875 
Q 37.015625 10.796875 39.796875 14.546875 
Q 42.578125 18.3125 42.578125 23.96875 
Q 42.578125 36.71875 32.078125 36.71875 
Q 27.34375 36.71875 24.4375 33.34375 
Q 21.53125 29.984375 21.53125 24.859375 
z
" id="MicrosoftYaHei-Bold-54"/>
       </defs>
       <use xlink:href="#MicrosoftYaHei-Bold-49"/>
       <use x="61.669922" xlink:href="#MicrosoftYaHei-Bold-48"/>
       <use x="123.339844" xlink:href="#MicrosoftYaHei-Bold-26102"/>
       <use x="223.339844" xlink:href="#MicrosoftYaHei-Bold-54"/>
       <use x="285.009766" xlink:href="#MicrosoftYaHei-Bold-20998"/>
      </g>
     </g>
    </g>
    <g id="xtick_4">
     <g id="line2d_4">
      <g>
       <use style="stroke:#000000;stroke-width:0.8;" x="245.966081" xlink:href="#mecdd7792c5" y="567"/>
      </g>
     </g>
     <g id="text_4">
      <!-- 10时9分 -->
      <g transform="translate(231.968018 613.452581)rotate(-45)scale(0.12 -0.12)">
       <defs>
        <path d="M 8.5 14.703125 
Q 14.546875 10.796875 22.75 10.796875 
Q 41.0625 10.796875 41.453125 34.625 
L 41.15625 34.71875 
Q 36.1875 27.046875 25.78125 27.046875 
Q 16.359375 27.046875 10.28125 33.65625 
Q 4.203125 40.28125 4.203125 50.34375 
Q 4.203125 62.15625 11.515625 69.53125 
Q 18.84375 76.90625 30.609375 76.90625 
Q 42.875 76.90625 49.859375 67.578125 
Q 56.84375 58.25 56.84375 41.546875 
Q 56.84375 21.734375 48.40625 10.203125 
Q 39.984375 -1.3125 24.171875 -1.3125 
Q 15.234375 -1.3125 8.5 1.5625 
z
M 19.671875 51.765625 
Q 19.671875 45.75 22.578125 42.328125 
Q 25.484375 38.921875 30.515625 38.921875 
Q 35.015625 38.921875 37.921875 42.1875 
Q 40.828125 45.453125 40.828125 50.296875 
Q 40.828125 56.109375 37.921875 60.453125 
Q 35.015625 64.796875 30.125 64.796875 
Q 25.390625 64.796875 22.53125 61.03125 
Q 19.671875 57.28125 19.671875 51.765625 
z
" id="MicrosoftYaHei-Bold-57"/>
       </defs>
       <use xlink:href="#MicrosoftYaHei-Bold-49"/>
       <use x="61.669922" xlink:href="#MicrosoftYaHei-Bold-48"/>
       <use x="123.339844" xlink:href="#MicrosoftYaHei-Bold-26102"/>
       <use x="223.339844" xlink:href="#MicrosoftYaHei-Bold-57"/>
       <use x="285.009766" xlink:href="#MicrosoftYaHei-Bold-20998"/>
      </g>
     </g>
    </g>
    <g id="xtick_5">
     <g id="line2d_5">
      <g>
       <use style="stroke:#000000;stroke-width:0.8;" x="266.427502" xlink:href="#mecdd7792c5" y="567"/>
      </g>
     </g>
     <g id="text_5">
      <!-- 10时12分 -->
      <g transform="translate(249.812923 618.685613)rotate(-45)scale(0.12 -0.12)">
       <defs>
        <path d="M 23.4375 13.140625 
L 55.515625 13.140625 
L 55.515625 0 
L 5.21875 0 
L 5.21875 5.609375 
Q 5.21875 11.53125 7.390625 16.40625 
Q 9.578125 21.296875 13.375 25.515625 
Q 17.1875 29.734375 25.203125 35.40625 
Q 32.515625 40.875 35.4375 45.09375 
Q 38.375 49.3125 38.375 54.046875 
Q 38.375 64.265625 27.25 64.265625 
Q 17.484375 64.265625 8.59375 56.453125 
L 8.59375 70.515625 
Q 18.5 76.90625 30.859375 76.90625 
Q 42.1875 76.90625 48.78125 71.109375 
Q 55.375 65.328125 55.375 55.171875 
Q 55.375 49.515625 53.46875 44.9375 
Q 51.5625 40.375 47.953125 36.375 
Q 44.34375 32.375 36.375 26.765625 
Q 28.71875 21.296875 26.078125 18.3125 
Q 23.4375 15.328125 23.4375 13.140625 
z
" id="MicrosoftYaHei-Bold-50"/>
       </defs>
       <use xlink:href="#MicrosoftYaHei-Bold-49"/>
       <use x="61.669922" xlink:href="#MicrosoftYaHei-Bold-48"/>
       <use x="123.339844" xlink:href="#MicrosoftYaHei-Bold-26102"/>
       <use x="223.339844" xlink:href="#MicrosoftYaHei-Bold-49"/>
       <use x="285.009766" xlink:href="#MicrosoftYaHei-Bold-50"/>
       <use x="346.679688" xlink:href="#MicrosoftYaHei-Bold-20998"/>
      </g>
     </g>
    </g>
    <g id="xtick_6">
     <g id="line2d_6">
      <g>
       <use style="stroke:#000000;stroke-width:0.8;" x="286.888923" xlink:href="#mecdd7792c5" y="567"/>
      </g>
     </g>
     <g id="text_6">
      <!-- 10时15分 -->
      <g transform="translate(270.274344 618.685613)rotate(-45)scale(0.12 -0.12)">
       <defs>
        <path d="M 8.453125 1.953125 
L 8.453125 15.578125 
Q 16.3125 10.796875 25.203125 10.796875 
Q 31.890625 10.796875 35.671875 14.09375 
Q 39.453125 17.390625 39.453125 23 
Q 39.453125 34.765625 23.34375 34.765625 
Q 17.390625 34.765625 9.625 33.890625 
L 12.453125 75.640625 
L 52.484375 75.640625 
L 52.484375 62.640625 
L 25.203125 62.640625 
L 24.125 46.734375 
Q 28.171875 47.078125 31.59375 47.078125 
Q 42.671875 47.078125 49.09375 41.015625 
Q 55.515625 34.96875 55.515625 24.609375 
Q 55.515625 13.1875 47.75 5.9375 
Q 39.984375 -1.3125 26.65625 -1.3125 
Q 15.875 -1.3125 8.453125 1.953125 
z
" id="MicrosoftYaHei-Bold-53"/>
       </defs>
       <use xlink:href="#MicrosoftYaHei-Bold-49"/>
       <use x="61.669922" xlink:href="#MicrosoftYaHei-Bold-48"/>
       <use x="123.339844" xlink:href="#MicrosoftYaHei-Bold-26102"/>
       <use x="223.339844" xlink:href="#MicrosoftYaHei-Bold-49"/>
       <use x="285.009766" xlink:href="#MicrosoftYaHei-Bold-53"/>
       <use x="346.679688" xlink:href="#MicrosoftYaHei-Bold-20998"/>
      </g>
     </g>
    </g>
    <g id="xtick_7">
     <g id="line2d_7">
      <g>
       <use style="stroke:#000000;stroke-width:0.8;" x="307.350344" xlink:href="#mecdd7792c5" y="567"/>
      </g>
     </g>
     <g id="text_7">
      <!-- 10时18分 -->
      <g transform="translate(290.735765 618.685613)rotate(-45)scale(0.12 -0.12)">
       <defs>
        <path d="M 4.203125 20.359375 
Q 4.203125 26.953125 8 32.078125 
Q 11.8125 37.203125 19.046875 39.59375 
Q 13.28125 42.484375 10.125 46.921875 
Q 6.984375 51.375 6.984375 56.78125 
Q 6.984375 62.453125 10.078125 67.0625 
Q 13.1875 71.6875 18.75 74.296875 
Q 24.3125 76.90625 31.203125 76.90625 
Q 38.140625 76.90625 43.75 74.34375 
Q 49.359375 71.78125 52.484375 67.15625 
Q 55.609375 62.546875 55.609375 56.984375 
Q 55.609375 51.703125 52.171875 47.15625 
Q 48.734375 42.625 42.921875 39.984375 
Q 50 37.546875 53.953125 32.4375 
Q 57.90625 27.34375 57.90625 20.515625 
Q 57.90625 10.890625 50.4375 4.828125 
Q 42.96875 -1.21875 31.0625 -1.21875 
Q 19.140625 -1.21875 11.671875 4.828125 
Q 4.203125 10.890625 4.203125 20.359375 
z
M 19.96875 21.78125 
Q 19.96875 16.5 23 13.328125 
Q 26.03125 10.15625 31.109375 10.15625 
Q 35.984375 10.15625 39.109375 13.328125 
Q 42.234375 16.5 42.234375 21.78125 
Q 42.234375 26.703125 39.0625 30 
Q 35.890625 33.296875 31.109375 33.296875 
Q 26.171875 33.296875 23.0625 30 
Q 19.96875 26.703125 19.96875 21.78125 
z
M 22.3125 55.171875 
Q 22.3125 51.03125 24.875 48.078125 
Q 27.4375 45.125 31.34375 45.125 
Q 35.109375 45.125 37.734375 48 
Q 40.375 50.875 40.375 55.171875 
Q 40.375 59.46875 37.8125 62.453125 
Q 35.25 65.4375 31.34375 65.4375 
Q 27.34375 65.4375 24.828125 62.453125 
Q 22.3125 59.46875 22.3125 55.171875 
z
" id="MicrosoftYaHei-Bold-56"/>
       </defs>
       <use xlink:href="#MicrosoftYaHei-Bold-49"/>
       <use x="61.669922" xlink:href="#MicrosoftYaHei-Bold-48"/>
       <use x="123.339844" xlink:href="#MicrosoftYaHei-Bold-26102"/>
       <use x="223.339844" xlink:href="#MicrosoftYaHei-Bold-49"/>
       <use x="285.009766" xlink:href="#MicrosoftYaHei-Bold-56"/>
       <use x="346.679688" xlink:href="#MicrosoftYaHei-Bold-20998"/>
      </g>
     </g>
    </g>
    <g id="xtick_8">
     <g id="line2d_8">
      <g>
       <use style="stroke:#000000;stroke-width:0.8;" x="327.811765" xlink:href="#mecdd7792c5" y="567"/>
      </g>
     </g>
     <g id="text_8">
      <!-- 10时21分 -->
      <g transform="translate(311.197186 618.685613)rotate(-45)scale(0.12 -0.12)">
       <use xlink:href="#MicrosoftYaHei-Bold-49"/>
       <use x="61.669922" xlink:href="#MicrosoftYaHei-Bold-48"/>
       <use x="123.339844" xlink:href="#MicrosoftYaHei-Bold-26102"/>
       <use x="223.339844" xlink:href="#MicrosoftYaHei-Bold-50"/>
       <use x="285.009766" xlink:href="#MicrosoftYaHei-Bold-49"/>
       <use x="346.679688" xlink:href="#MicrosoftYaHei-Bold-20998"/>
      </g>
     </g>
    </g>
    <g id="xtick_9">
     <g id="line2d_9">
      <g>
       <use style="stroke:#000000;stroke-width:0.8;" x="348.273186" xlink:href="#mecdd7792c5" y="567"/>
      </g>
     </g>
     <g id="text_9">
      <!-- 10时24分 -->
      <g transform="translate(331.658607 618.685613)rotate(-45)scale(0.12 -0.12)">
       <defs>
        <path d="M 49.75 75.640625 
L 49.75 27.59375 
L 60.453125 27.59375 
L 60.453125 16.109375 
L 49.75 16.109375 
L 49.75 0 
L 35.40625 0 
L 35.40625 16.109375 
L 1.609375 16.109375 
L 1.609375 27.6875 
Q 12.109375 39.40625 21.28125 52.484375 
Q 30.46875 65.578125 35.15625 75.640625 
z
M 15.578125 27.59375 
L 35.40625 27.59375 
L 35.40625 55.328125 
Q 33.0625 50.921875 28.6875 44.671875 
Q 24.3125 38.421875 15.578125 27.59375 
z
" id="MicrosoftYaHei-Bold-52"/>
       </defs>
       <use xlink:href="#MicrosoftYaHei-Bold-49"/>
       <use x="61.669922" xlink:href="#MicrosoftYaHei-Bold-48"/>
       <use x="123.339844" xlink:href="#MicrosoftYaHei-Bold-26102"/>
       <use x="223.339844" xlink:href="#MicrosoftYaHei-Bold-50"/>
       <use x="285.009766" xlink:href="#MicrosoftYaHei-Bold-52"/>
       <use x="346.679688" xlink:href="#MicrosoftYaHei-Bold-20998"/>
      </g>
     </g>
    </g>
    <g id="xtick_10">
     <g id="line2d_10">
      <g>
       <use style="stroke:#000000;stroke-width:0.8;" x="368.734607" xlink:href="#mecdd7792c5" y="567"/>
      </g>
     </g>
     <g id="text_10">
      <!-- 10时27分 -->
      <g transform="translate(352.120028 618.685613)rotate(-45)scale(0.12 -0.12)">
       <defs>
        <path d="M 57.421875 66.015625 
Q 48.25 49.5625 43.71875 39.5 
Q 39.203125 29.4375 36.375 19.921875 
Q 33.546875 10.40625 32.03125 0 
L 15.09375 0 
Q 17.53125 14.796875 23.703125 29.953125 
Q 29.890625 45.125 40.765625 62.640625 
L 4.6875 62.640625 
L 4.6875 75.640625 
L 57.421875 75.640625 
z
" id="MicrosoftYaHei-Bold-55"/>
       </defs>
       <use xlink:href="#MicrosoftYaHei-Bold-49"/>
       <use x="61.669922" xlink:href="#MicrosoftYaHei-Bold-48"/>
       <use x="123.339844" xlink:href="#MicrosoftYaHei-Bold-26102"/>
       <use x="223.339844" xlink:href="#MicrosoftYaHei-Bold-50"/>
       <use x="285.009766" xlink:href="#MicrosoftYaHei-Bold-55"/>
       <use x="346.679688" xlink:href="#MicrosoftYaHei-Bold-20998"/>
      </g>
     </g>
    </g>
    <g id="xtick_11">
     <g id="line2d_11">
      <g>
       <use style="stroke:#000000;stroke-width:0.8;" x="389.196028" xlink:href="#mecdd7792c5" y="567"/>
      </g>
     </g>
     <g id="text_11">
      <!-- 10时30分 -->
      <g transform="translate(372.581449 618.685613)rotate(-45)scale(0.12 -0.12)">
       <use xlink:href="#MicrosoftYaHei-Bold-49"/>
       <use x="61.669922" xlink:href="#MicrosoftYaHei-Bold-48"/>
       <use x="123.339844" xlink:href="#MicrosoftYaHei-Bold-26102"/>
       <use x="223.339844" xlink:href="#MicrosoftYaHei-Bold-51"/>
       <use x="285.009766" xlink:href="#MicrosoftYaHei-Bold-48"/>
       <use x="346.679688" xlink:href="#MicrosoftYaHei-Bold-20998"/>
      </g>
     </g>
    </g>
    <g id="xtick_12">
     <g id="line2d_12">
      <g>
       <use style="stroke:#000000;stroke-width:0.8;" x="409.657448" xlink:href="#mecdd7792c5" y="567"/>
      </g>
     </g>
     <g id="text_12">
      <!-- 10时33分 -->
      <g transform="translate(393.04287 618.685613)rotate(-45)scale(0.12 -0.12)">
       <use xlink:href="#MicrosoftYaHei-Bold-49"/>
       <use x="61.669922" xlink:href="#MicrosoftYaHei-Bold-48"/>
       <use x="123.339844" xlink:href="#MicrosoftYaHei-Bold-26102"/>
       <use x="223.339844" xlink:href="#MicrosoftYaHei-Bold-51"/>
       <use x="285.009766" xlink:href="#MicrosoftYaHei-Bold-51"/>
       <use x="346.679688" xlink:href="#MicrosoftYaHei-Bold-20998"/>
      </g>
     </g>
    </g>
    <g id="xtick_13">
     <g id="line2d_13">
      <g>
       <use style="stroke:#000000;stroke-width:0.8;" x="430.118869" xlink:href="#mecdd7792c5" y="567"/>
      </g>
     </g>
     <g id="text_13">
      <!-- 10时36分 -->
      <g transform="translate(413.504291 618.685613)rotate(-45)scale(0.12 -0.12)">
       <use xlink:href="#MicrosoftYaHei-Bold-49"/>
       <use x="61.669922" xlink:href="#MicrosoftYaHei-Bold-48"/>
       <use x="123.339844" xlink:href="#MicrosoftYaHei-Bold-26102"/>
       <use x="223.339844" xlink:href="#MicrosoftYaHei-Bold-51"/>
       <use x="285.009766" xlink:href="#MicrosoftYaHei-Bold-54"/>
       <use x="346.679688" xlink:href="#MicrosoftYaHei-Bold-20998"/>
      </g>
     </g>
    </g>
    <g id="xtick_14">
     <g id="line2d_14">
      <g>
       <use style="stroke:#000000;stroke-width:0.8;" x="450.58029" xlink:href="#mecdd7792c5" y="567"/>
      </g>
     </g>
     <g id="text_14">
      <!-- 10时39分 -->
      <g transform="translate(433.965712 618.685613)rotate(-45)scale(0.12 -0.12)">
       <use xlink:href="#MicrosoftYaHei-Bold-49"/>
       <use x="61.669922" xlink:href="#MicrosoftYaHei-Bold-48"/>
       <use x="123.339844" xlink:href="#MicrosoftYaHei-Bold-26102"/>
       <use x="223.339844" xlink:href="#MicrosoftYaHei-Bold-51"/>
       <use x="285.009766" xlink:href="#MicrosoftYaHei-Bold-57"/>
       <use x="346.679688" xlink:href="#MicrosoftYaHei-Bold-20998"/>
      </g>
     </g>
    </g>
    <g id="xtick_15">
     <g id="line2d_15">
      <g>
       <use style="stroke:#000000;stroke-width:0.8;" x="471.041711" xlink:href="#mecdd7792c5" y="567"/>
      </g>
     </g>
     <g id="text_15">
      <!-- 10时42分 -->
      <g transform="translate(454.427133 618.685613)rotate(-45)scale(0.12 -0.12)">
       <use xlink:href="#MicrosoftYaHei-Bold-49"/>
       <use x="61.669922" xlink:href="#MicrosoftYaHei-Bold-48"/>
       <use x="123.339844" xlink:href="#MicrosoftYaHei-Bold-26102"/>
       <use x="223.339844" xlink:href="#MicrosoftYaHei-Bold-52"/>
       <use x="285.009766" xlink:href="#MicrosoftYaHei-Bold-50"/>
       <use x="346.679688" xlink:href="#MicrosoftYaHei-Bold-20998"/>
      </g>
     </g>
    </g>
    <g id="xtick_16">
     <g id="line2d_16">
      <g>
       <use style="stroke:#000000;stroke-width:0.8;" x="491.503132" xlink:href="#mecdd7792c5" y="567"/>
      </g>
     </g>
     <g id="text_16">
      <!-- 10时45分 -->
      <g transform="translate(474.888553 618.685613)rotate(-45)scale(0.12 -0.12)">
       <use xlink:href="#MicrosoftYaHei-Bold-49"/>
       <use x="61.669922" xlink:href="#MicrosoftYaHei-Bold-48"/>
       <use x="123.339844" xlink:href="#MicrosoftYaHei-Bold-26102"/>
       <use x="223.339844" xlink:href="#MicrosoftYaHei-Bold-52"/>
       <use x="285.009766" xlink:href="#MicrosoftYaHei-Bold-53"/>
       <use x="346.679688" xlink:href="#MicrosoftYaHei-Bold-20998"/>
      </g>
     </g>
    </g>
    <g id="xtick_17">
     <g id="line2d_17">
      <g>
       <use style="stroke:#000000;stroke-width:0.8;" x="511.964553" xlink:href="#mecdd7792c5" y="567"/>
      </g>
     </g>
     <g id="text_17">
      <!-- 10时48分 -->
      <g transform="translate(495.349974 618.685613)rotate(-45)scale(0.12 -0.12)">
       <use xlink:href="#MicrosoftYaHei-Bold-49"/>
       <use x="61.669922" xlink:href="#MicrosoftYaHei-Bold-48"/>
       <use x="123.339844" xlink:href="#MicrosoftYaHei-Bold-26102"/>
       <use x="223.339844" xlink:href="#MicrosoftYaHei-Bold-52"/>
       <use x="285.009766" xlink:href="#MicrosoftYaHei-Bold-56"/>
       <use x="346.679688" xlink:href="#MicrosoftYaHei-Bold-20998"/>
      </g>
     </g>
    </g>
    <g id="xtick_18">
     <g id="line2d_18">
      <g>
       <use style="stroke:#000000;stroke-width:0.8;" x="532.425974" xlink:href="#mecdd7792c5" y="567"/>
      </g>
     </g>
     <g id="text_18">
      <!-- 10时51分 -->
      <g transform="translate(515.811395 618.685613)rotate(-45)scale(0.12 -0.12)">
       <use xlink:href="#MicrosoftYaHei-Bold-49"/>
       <use x="61.669922" xlink:href="#MicrosoftYaHei-Bold-48"/>
       <use x="123.339844" xlink:href="#MicrosoftYaHei-Bold-26102"/>
       <use x="223.339844" xlink:href="#MicrosoftYaHei-Bold-53"/>
       <use x="285.009766" xlink:href="#MicrosoftYaHei-Bold-49"/>
       <use x="346.679688" xlink:href="#MicrosoftYaHei-Bold-20998"/>
      </g>
     </g>
    </g>
    <g id="xtick_19">
     <g id="line2d_19">
      <g>
       <use style="stroke:#000000;stroke-width:0.8;" x="552.887395" xlink:href="#mecdd7792c5" y="567"/>
      </g>
     </g>
     <g id="text_19">
      <!-- 10时54分 -->
      <g transform="translate(536.272816 618.685613)rotate(-45)scale(0.12 -0.12)">
       <use xlink:href="#MicrosoftYaHei-Bold-49"/>
       <use x="61.669922" xlink:href="#MicrosoftYaHei-Bold-48"/>
       <use x="123.339844" xlink:href="#MicrosoftYaHei-Bold-26102"/>
       <use x="223.339844" xlink:href="#MicrosoftYaHei-Bold-53"/>
       <use x="285.009766" xlink:href="#MicrosoftYaHei-Bold-52"/>
       <use x="346.679688" xlink:href="#MicrosoftYaHei-Bold-20998"/>
      </g>
     </g>
    </g>
    <g id="xtick_20">
     <g id="line2d_20">
      <g>
       <use style="stroke:#000000;stroke-width:0.8;" x="573.348816" xlink:href="#mecdd7792c5" y="567"/>
      </g>
     </g>
     <g id="text_20">
      <!-- 10时57分 -->
      <g transform="translate(556.734237 618.685613)rotate(-45)scale(0.12 -0.12)">
       <use xlink:href="#MicrosoftYaHei-Bold-49"/>
       <use x="61.669922" xlink:href="#MicrosoftYaHei-Bold-48"/>
       <use x="123.339844" xlink:href="#MicrosoftYaHei-Bold-26102"/>
       <use x="223.339844" xlink:href="#MicrosoftYaHei-Bold-53"/>
       <use x="285.009766" xlink:href="#MicrosoftYaHei-Bold-55"/>
       <use x="346.679688" xlink:href="#MicrosoftYaHei-Bold-20998"/>
      </g>
     </g>
    </g>
    <g id="xtick_21">
     <g id="line2d_21">
      <g>
       <use style="stroke:#000000;stroke-width:0.8;" x="593.810237" xlink:href="#mecdd7792c5" y="567"/>
      </g>
     </g>
     <g id="text_21">
      <!-- 11时0分 -->
      <g transform="translate(579.812174 613.452581)rotate(-45)scale(0.12 -0.12)">
       <use xlink:href="#MicrosoftYaHei-Bold-49"/>
       <use x="61.669922" xlink:href="#MicrosoftYaHei-Bold-49"/>
       <use x="123.339844" xlink:href="#MicrosoftYaHei-Bold-26102"/>
       <use x="223.339844" xlink:href="#MicrosoftYaHei-Bold-48"/>
       <use x="285.009766" xlink:href="#MicrosoftYaHei-Bold-20998"/>
      </g>
     </g>
    </g>
    <g id="xtick_22">
     <g id="line2d_22">
      <g>
       <use style="stroke:#000000;stroke-width:0.8;" x="614.271658" xlink:href="#mecdd7792c5" y="567"/>
      </g>
     </g>
     <g id="text_22">
      <!-- 11时3分 -->
      <g transform="translate(600.273595 613.452581)rotate(-45)scale(0.12 -0.12)">
       <use xlink:href="#MicrosoftYaHei-Bold-49"/>
       <use x="61.669922" xlink:href="#MicrosoftYaHei-Bold-49"/>
       <use x="123.339844" xlink:href="#MicrosoftYaHei-Bold-26102"/>
       <use x="223.339844" xlink:href="#MicrosoftYaHei-Bold-51"/>
       <use x="285.009766" xlink:href="#MicrosoftYaHei-Bold-20998"/>
      </g>
     </g>
    </g>
    <g id="xtick_23">
     <g id="line2d_23">
      <g>
       <use style="stroke:#000000;stroke-width:0.8;" x="634.733079" xlink:href="#mecdd7792c5" y="567"/>
      </g>
     </g>
     <g id="text_23">
      <!-- 11时6分 -->
      <g transform="translate(620.735016 613.452581)rotate(-45)scale(0.12 -0.12)">
       <use xlink:href="#MicrosoftYaHei-Bold-49"/>
       <use x="61.669922" xlink:href="#MicrosoftYaHei-Bold-49"/>
       <use x="123.339844" xlink:href="#MicrosoftYaHei-Bold-26102"/>
       <use x="223.339844" xlink:href="#MicrosoftYaHei-Bold-54"/>
       <use x="285.009766" xlink:href="#MicrosoftYaHei-Bold-20998"/>
      </g>
     </g>
    </g>
    <g id="xtick_24">
     <g id="line2d_24">
      <g>
       <use style="stroke:#000000;stroke-width:0.8;" x="655.1945" xlink:href="#mecdd7792c5" y="567"/>
      </g>
     </g>
     <g id="text_24">
      <!-- 11时9分 -->
      <g transform="translate(641.196437 613.452581)rotate(-45)scale(0.12 -0.12)">
       <use xlink:href="#MicrosoftYaHei-Bold-49"/>
       <use x="61.669922" xlink:href="#MicrosoftYaHei-Bold-49"/>
       <use x="123.339844" xlink:href="#MicrosoftYaHei-Bold-26102"/>
       <use x="223.339844" xlink:href="#MicrosoftYaHei-Bold-57"/>
       <use x="285.009766" xlink:href="#MicrosoftYaHei-Bold-20998"/>
      </g>
     </g>
    </g>
    <g id="xtick_25">
     <g id="line2d_25">
      <g>
       <use style="stroke:#000000;stroke-width:0.8;" x="675.655921" xlink:href="#mecdd7792c5" y="567"/>
      </g>
     </g>
     <g id="text_25">
      <!-- 11时12分 -->
      <g transform="translate(659.041342 618.685613)rotate(-45)scale(0.12 -0.12)">
       <use xlink:href="#MicrosoftYaHei-Bold-49"/>
       <use x="61.669922" xlink:href="#MicrosoftYaHei-Bold-49"/>
       <use x="123.339844" xlink:href="#MicrosoftYaHei-Bold-26102"/>
       <use x="223.339844" xlink:href="#MicrosoftYaHei-Bold-49"/>
       <use x="285.009766" xlink:href="#MicrosoftYaHei-Bold-50"/>
       <use x="346.679688" xlink:href="#MicrosoftYaHei-Bold-20998"/>
      </g>
     </g>
    </g>
    <g id="xtick_26">
     <g id="line2d_26">
      <g>
       <use style="stroke:#000000;stroke-width:0.8;" x="696.117341" xlink:href="#mecdd7792c5" y="567"/>
      </g>
     </g>
     <g id="text_26">
      <!-- 11时15分 -->
      <g transform="translate(679.502763 618.685613)rotate(-45)scale(0.12 -0.12)">
       <use xlink:href="#MicrosoftYaHei-Bold-49"/>
       <use x="61.669922" xlink:href="#MicrosoftYaHei-Bold-49"/>
       <use x="123.339844" xlink:href="#MicrosoftYaHei-Bold-26102"/>
       <use x="223.339844" xlink:href="#MicrosoftYaHei-Bold-49"/>
       <use x="285.009766" xlink:href="#MicrosoftYaHei-Bold-53"/>
       <use x="346.679688" xlink:href="#MicrosoftYaHei-Bold-20998"/>
      </g>
     </g>
    </g>
    <g id="xtick_27">
     <g id="line2d_27">
      <g>
       <use style="stroke:#000000;stroke-width:0.8;" x="716.578762" xlink:href="#mecdd7792c5" y="567"/>
      </g>
     </g>
     <g id="text_27">
      <!-- 11时18分 -->
      <g transform="translate(699.964184 618.685613)rotate(-45)scale(0.12 -0.12)">
       <use xlink:href="#MicrosoftYaHei-Bold-49"/>
       <use x="61.669922" xlink:href="#MicrosoftYaHei-Bold-49"/>
       <use x="123.339844" xlink:href="#MicrosoftYaHei-Bold-26102"/>
       <use x="223.339844" xlink:href="#MicrosoftYaHei-Bold-49"/>
       <use x="285.009766" xlink:href="#MicrosoftYaHei-Bold-56"/>
       <use x="346.679688" xlink:href="#MicrosoftYaHei-Bold-20998"/>
      </g>
     </g>
    </g>
    <g id="xtick_28">
     <g id="line2d_28">
      <g>
       <use style="stroke:#000000;stroke-width:0.8;" x="737.040183" xlink:href="#mecdd7792c5" y="567"/>
      </g>
     </g>
     <g id="text_28">
      <!-- 11时21分 -->
      <g transform="translate(720.425605 618.685613)rotate(-45)scale(0.12 -0.12)">
       <use xlink:href="#MicrosoftYaHei-Bold-49"/>
       <use x="61.669922" xlink:href="#MicrosoftYaHei-Bold-49"/>
       <use x="123.339844" xlink:href="#MicrosoftYaHei-Bold-26102"/>
       <use x="223.339844" xlink:href="#MicrosoftYaHei-Bold-50"/>
       <use x="285.009766" xlink:href="#MicrosoftYaHei-Bold-49"/>
       <use x="346.679688" xlink:href="#MicrosoftYaHei-Bold-20998"/>
      </g>
     </g>
    </g>
    <g id="xtick_29">
     <g id="line2d_29">
      <g>
       <use style="stroke:#000000;stroke-width:0.8;" x="757.501604" xlink:href="#mecdd7792c5" y="567"/>
      </g>
     </g>
     <g id="text_29">
      <!-- 11时24分 -->
      <g transform="translate(740.887026 618.685613)rotate(-45)scale(0.12 -0.12)">
       <use xlink:href="#MicrosoftYaHei-Bold-49"/>
       <use x="61.669922" xlink:href="#MicrosoftYaHei-Bold-49"/>
       <use x="123.339844" xlink:href="#MicrosoftYaHei-Bold-26102"/>
       <use x="223.339844" xlink:href="#MicrosoftYaHei-Bold-50"/>
       <use x="285.009766" xlink:href="#MicrosoftYaHei-Bold-52"/>
       <use x="346.679688" xlink:href="#MicrosoftYaHei-Bold-20998"/>
      </g>
     </g>
    </g>
    <g id="xtick_30">
     <g id="line2d_30">
      <g>
       <use style="stroke:#000000;stroke-width:0.8;" x="777.963025" xlink:href="#mecdd7792c5" y="567"/>
      </g>
     </g>
     <g id="text_30">
      <!-- 11时27分 -->
      <g transform="translate(761.348447 618.685613)rotate(-45)scale(0.12 -0.12)">
       <use xlink:href="#MicrosoftYaHei-Bold-49"/>
       <use x="61.669922" xlink:href="#MicrosoftYaHei-Bold-49"/>
       <use x="123.339844" xlink:href="#MicrosoftYaHei-Bold-26102"/>
       <use x="223.339844" xlink:href="#MicrosoftYaHei-Bold-50"/>
       <use x="285.009766" xlink:href="#MicrosoftYaHei-Bold-55"/>
       <use x="346.679688" xlink:href="#MicrosoftYaHei-Bold-20998"/>
      </g>
     </g>
    </g>
    <g id="xtick_31">
     <g id="line2d_31">
      <g>
       <use style="stroke:#000000;stroke-width:0.8;" x="798.424446" xlink:href="#mecdd7792c5" y="567"/>
      </g>
     </g>
     <g id="text_31">
      <!-- 11时30分 -->
      <g transform="translate(781.809867 618.685613)rotate(-45)scale(0.12 -0.12)">
       <use xlink:href="#MicrosoftYaHei-Bold-49"/>
       <use x="61.669922" xlink:href="#MicrosoftYaHei-Bold-49"/>
       <use x="123.339844" xlink:href="#MicrosoftYaHei-Bold-26102"/>
       <use x="223.339844" xlink:href="#MicrosoftYaHei-Bold-51"/>
       <use x="285.009766" xlink:href="#MicrosoftYaHei-Bold-48"/>
       <use x="346.679688" xlink:href="#MicrosoftYaHei-Bold-20998"/>
      </g>
     </g>
    </g>
    <g id="xtick_32">
     <g id="line2d_32">
      <g>
       <use style="stroke:#000000;stroke-width:0.8;" x="818.885867" xlink:href="#mecdd7792c5" y="567"/>
      </g>
     </g>
     <g id="text_32">
      <!-- 11时33分 -->
      <g transform="translate(802.271288 618.685613)rotate(-45)scale(0.12 -0.12)">
       <use xlink:href="#MicrosoftYaHei-Bold-49"/>
       <use x="61.669922" xlink:href="#MicrosoftYaHei-Bold-49"/>
       <use x="123.339844" xlink:href="#MicrosoftYaHei-Bold-26102"/>
       <use x="223.339844" xlink:href="#MicrosoftYaHei-Bold-51"/>
       <use x="285.009766" xlink:href="#MicrosoftYaHei-Bold-51"/>
       <use x="346.679688" xlink:href="#MicrosoftYaHei-Bold-20998"/>
      </g>
     </g>
    </g>
    <g id="xtick_33">
     <g id="line2d_33">
      <g>
       <use style="stroke:#000000;stroke-width:0.8;" x="839.347288" xlink:href="#mecdd7792c5" y="567"/>
      </g>
     </g>
     <g id="text_33">
      <!-- 11时36分 -->
      <g transform="translate(822.732709 618.685613)rotate(-45)scale(0.12 -0.12)">
       <use xlink:href="#MicrosoftYaHei-Bold-49"/>
       <use x="61.669922" xlink:href="#MicrosoftYaHei-Bold-49"/>
       <use x="123.339844" xlink:href="#MicrosoftYaHei-Bold-26102"/>
       <use x="223.339844" xlink:href="#MicrosoftYaHei-Bold-51"/>
       <use x="285.009766" xlink:href="#MicrosoftYaHei-Bold-54"/>
       <use x="346.679688" xlink:href="#MicrosoftYaHei-Bold-20998"/>
      </g>
     </g>
    </g>
    <g id="xtick_34">
     <g id="line2d_34">
      <g>
       <use style="stroke:#000000;stroke-width:0.8;" x="859.808709" xlink:href="#mecdd7792c5" y="567"/>
      </g>
     </g>
     <g id="text_34">
      <!-- 11时39分 -->
      <g transform="translate(843.19413 618.685613)rotate(-45)scale(0.12 -0.12)">
       <use xlink:href="#MicrosoftYaHei-Bold-49"/>
       <use x="61.669922" xlink:href="#MicrosoftYaHei-Bold-49"/>
       <use x="123.339844" xlink:href="#MicrosoftYaHei-Bold-26102"/>
       <use x="223.339844" xlink:href="#MicrosoftYaHei-Bold-51"/>
       <use x="285.009766" xlink:href="#MicrosoftYaHei-Bold-57"/>
       <use x="346.679688" xlink:href="#MicrosoftYaHei-Bold-20998"/>
      </g>
     </g>
    </g>
    <g id="xtick_35">
     <g id="line2d_35">
      <g>
       <use style="stroke:#000000;stroke-width:0.8;" x="880.27013" xlink:href="#mecdd7792c5" y="567"/>
      </g>
     </g>
     <g id="text_35">
      <!-- 11时42分 -->
      <g transform="translate(863.655551 618.685613)rotate(-45)scale(0.12 -0.12)">
       <use xlink:href="#MicrosoftYaHei-Bold-49"/>
       <use x="61.669922" xlink:href="#MicrosoftYaHei-Bold-49"/>
       <use x="123.339844" xlink:href="#MicrosoftYaHei-Bold-26102"/>
       <use x="223.339844" xlink:href="#MicrosoftYaHei-Bold-52"/>
       <use x="285.009766" xlink:href="#MicrosoftYaHei-Bold-50"/>
       <use x="346.679688" xlink:href="#MicrosoftYaHei-Bold-20998"/>
      </g>
     </g>
    </g>
    <g id="xtick_36">
     <g id="line2d_36">
      <g>
       <use style="stroke:#000000;stroke-width:0.8;" x="900.731551" xlink:href="#mecdd7792c5" y="567"/>
      </g>
     </g>
     <g id="text_36">
      <!-- 11时45分 -->
      <g transform="translate(884.116972 618.685613)rotate(-45)scale(0.12 -0.12)">
       <use xlink:href="#MicrosoftYaHei-Bold-49"/>
       <use x="61.669922" xlink:href="#MicrosoftYaHei-Bold-49"/>
       <use x="123.339844" xlink:href="#MicrosoftYaHei-Bold-26102"/>
       <use x="223.339844" xlink:href="#MicrosoftYaHei-Bold-52"/>
       <use x="285.009766" xlink:href="#MicrosoftYaHei-Bold-53"/>
       <use x="346.679688" xlink:href="#MicrosoftYaHei-Bold-20998"/>
      </g>
     </g>
    </g>
    <g id="xtick_37">
     <g id="line2d_37">
      <g>
       <use style="stroke:#000000;stroke-width:0.8;" x="921.192972" xlink:href="#mecdd7792c5" y="567"/>
      </g>
     </g>
     <g id="text_37">
      <!-- 11时48分 -->
      <g transform="translate(904.578393 618.685613)rotate(-45)scale(0.12 -0.12)">
       <use xlink:href="#MicrosoftYaHei-Bold-49"/>
       <use x="61.669922" xlink:href="#MicrosoftYaHei-Bold-49"/>
       <use x="123.339844" xlink:href="#MicrosoftYaHei-Bold-26102"/>
       <use x="223.339844" xlink:href="#MicrosoftYaHei-Bold-52"/>
       <use x="285.009766" xlink:href="#MicrosoftYaHei-Bold-56"/>
       <use x="346.679688" xlink:href="#MicrosoftYaHei-Bold-20998"/>
      </g>
     </g>
    </g>
    <g id="xtick_38">
     <g id="line2d_38">
      <g>
       <use style="stroke:#000000;stroke-width:0.8;" x="941.654393" xlink:href="#mecdd7792c5" y="567"/>
      </g>
     </g>
     <g id="text_38">
      <!-- 11时51分 -->
      <g transform="translate(925.039814 618.685613)rotate(-45)scale(0.12 -0.12)">
       <use xlink:href="#MicrosoftYaHei-Bold-49"/>
       <use x="61.669922" xlink:href="#MicrosoftYaHei-Bold-49"/>
       <use x="123.339844" xlink:href="#MicrosoftYaHei-Bold-26102"/>
       <use x="223.339844" xlink:href="#MicrosoftYaHei-Bold-53"/>
       <use x="285.009766" xlink:href="#MicrosoftYaHei-Bold-49"/>
       <use x="346.679688" xlink:href="#MicrosoftYaHei-Bold-20998"/>
      </g>
     </g>
    </g>
    <g id="xtick_39">
     <g id="line2d_39">
      <g>
       <use style="stroke:#000000;stroke-width:0.8;" x="962.115814" xlink:href="#mecdd7792c5" y="567"/>
      </g>
     </g>
     <g id="text_39">
      <!-- 11时54分 -->
      <g transform="translate(945.501235 618.685613)rotate(-45)scale(0.12 -0.12)">
       <use xlink:href="#MicrosoftYaHei-Bold-49"/>
       <use x="61.669922" xlink:href="#MicrosoftYaHei-Bold-49"/>
       <use x="123.339844" xlink:href="#MicrosoftYaHei-Bold-26102"/>
       <use x="223.339844" xlink:href="#MicrosoftYaHei-Bold-53"/>
       <use x="285.009766" xlink:href="#MicrosoftYaHei-Bold-52"/>
       <use x="346.679688" xlink:href="#MicrosoftYaHei-Bold-20998"/>
      </g>
     </g>
    </g>
    <g id="xtick_40">
     <g id="line2d_40">
      <g>
       <use style="stroke:#000000;stroke-width:0.8;" x="982.577235" xlink:href="#mecdd7792c5" y="567"/>
      </g>
     </g>
     <g id="text_40">
      <!-- 11时57分 -->
      <g transform="translate(965.962656 618.685613)rotate(-45)scale(0.12 -0.12)">
       <use xlink:href="#MicrosoftYaHei-Bold-49"/>
       <use x="61.669922" xlink:href="#MicrosoftYaHei-Bold-49"/>
       <use x="123.339844" xlink:href="#MicrosoftYaHei-Bold-26102"/>
       <use x="223.339844" xlink:href="#MicrosoftYaHei-Bold-53"/>
       <use x="285.009766" xlink:href="#MicrosoftYaHei-Bold-55"/>
       <use x="346.679688" xlink:href="#MicrosoftYaHei-Bold-20998"/>
      </g>
     </g>
    </g>
   </g>
   <g id="matplotlib.axis_2">
    <g id="ytick_1">
     <g id="line2d_41">
      <defs>
       <path d="M 0 0 
L -3.5 0 
" id="m5d1aaa6667" style="stroke:#000000;stroke-width:0.8;"/>
      </defs>
      <g>
       <use style="stroke:#000000;stroke-width:0.8;" x="144" xlink:href="#m5d1aaa6667" y="544.761818"/>
      </g>
     </g>
     <g id="text_41">
      <!-- 20 -->
      <g transform="translate(122.19875 549.558068)scale(0.12 -0.12)">
       <use xlink:href="#MicrosoftYaHei-Bold-50"/>
       <use x="61.669922" xlink:href="#MicrosoftYaHei-Bold-48"/>
      </g>
     </g>
    </g>
    <g id="ytick_2">
     <g id="line2d_42">
      <g>
       <use style="stroke:#000000;stroke-width:0.8;" x="144" xlink:href="#m5d1aaa6667" y="485.46"/>
      </g>
     </g>
     <g id="text_42">
      <!-- 22 -->
      <g transform="translate(122.19875 490.25625)scale(0.12 -0.12)">
       <use xlink:href="#MicrosoftYaHei-Bold-50"/>
       <use x="61.669922" xlink:href="#MicrosoftYaHei-Bold-50"/>
      </g>
     </g>
    </g>
    <g id="ytick_3">
     <g id="line2d_43">
      <g>
       <use style="stroke:#000000;stroke-width:0.8;" x="144" xlink:href="#m5d1aaa6667" y="426.158182"/>
      </g>
     </g>
     <g id="text_43">
      <!-- 24 -->
      <g transform="translate(122.19875 430.954432)scale(0.12 -0.12)">
       <use xlink:href="#MicrosoftYaHei-Bold-50"/>
       <use x="61.669922" xlink:href="#MicrosoftYaHei-Bold-52"/>
      </g>
     </g>
    </g>
    <g id="ytick_4">
     <g id="line2d_44">
      <g>
       <use style="stroke:#000000;stroke-width:0.8;" x="144" xlink:href="#m5d1aaa6667" y="366.856364"/>
      </g>
     </g>
     <g id="text_44">
      <!-- 26 -->
      <g transform="translate(122.19875 371.652614)scale(0.12 -0.12)">
       <use xlink:href="#MicrosoftYaHei-Bold-50"/>
       <use x="61.669922" xlink:href="#MicrosoftYaHei-Bold-54"/>
      </g>
     </g>
    </g>
    <g id="ytick_5">
     <g id="line2d_45">
      <g>
       <use style="stroke:#000000;stroke-width:0.8;" x="144" xlink:href="#m5d1aaa6667" y="307.554545"/>
      </g>
     </g>
     <g id="text_45">
      <!-- 28 -->
      <g transform="translate(122.19875 312.350795)scale(0.12 -0.12)">
       <use xlink:href="#MicrosoftYaHei-Bold-50"/>
       <use x="61.669922" xlink:href="#MicrosoftYaHei-Bold-56"/>
      </g>
     </g>
    </g>
    <g id="ytick_6">
     <g id="line2d_46">
      <g>
       <use style="stroke:#000000;stroke-width:0.8;" x="144" xlink:href="#m5d1aaa6667" y="248.252727"/>
      </g>
     </g>
     <g id="text_46">
      <!-- 30 -->
      <g transform="translate(122.19875 253.048977)scale(0.12 -0.12)">
       <use xlink:href="#MicrosoftYaHei-Bold-51"/>
       <use x="61.669922" xlink:href="#MicrosoftYaHei-Bold-48"/>
      </g>
     </g>
    </g>
    <g id="ytick_7">
     <g id="line2d_47">
      <g>
       <use style="stroke:#000000;stroke-width:0.8;" x="144" xlink:href="#m5d1aaa6667" y="188.950909"/>
      </g>
     </g>
     <g id="text_47">
      <!-- 32 -->
      <g transform="translate(122.19875 193.747159)scale(0.12 -0.12)">
       <use xlink:href="#MicrosoftYaHei-Bold-51"/>
       <use x="61.669922" xlink:href="#MicrosoftYaHei-Bold-50"/>
      </g>
     </g>
    </g>
    <g id="ytick_8">
     <g id="line2d_48">
      <g>
       <use style="stroke:#000000;stroke-width:0.8;" x="144" xlink:href="#m5d1aaa6667" y="129.649091"/>
      </g>
     </g>
     <g id="text_48">
      <!-- 34 -->
      <g transform="translate(122.19875 134.445341)scale(0.12 -0.12)">
       <use xlink:href="#MicrosoftYaHei-Bold-51"/>
       <use x="61.669922" xlink:href="#MicrosoftYaHei-Bold-52"/>
      </g>
     </g>
    </g>
   </g>
   <g id="line2d_49">
    <path clip-path="url(#p05b1c41faa)" d="M 184.581818 248.252727 
L 191.402292 277.903636 
L 198.222765 544.761818 
L 205.043239 188.950909 
L 211.863713 129.649091 
L 218.684186 218.601818 
L 225.50466 218.601818 
L 232.325134 455.809091 
L 239.145607 307.554545 
L 245.966081 277.903636 
L 252.786555 248.252727 
L 259.607028 129.649091 
L 266.427502 159.3 
L 273.247976 396.507273 
L 280.068449 337.205455 
L 286.888923 396.507273 
L 293.709396 426.158182 
L 300.52987 455.809091 
L 307.350344 366.856364 
L 314.170817 159.3 
L 320.991291 277.903636 
L 327.811765 544.761818 
L 334.632238 129.649091 
L 341.452712 277.903636 
L 348.273186 426.158182 
L 355.093659 277.903636 
L 361.914133 218.601818 
L 368.734607 515.110909 
L 375.55508 159.3 
L 382.375554 188.950909 
L 389.196028 455.809091 
L 396.016501 544.761818 
L 402.836975 218.601818 
L 409.657448 366.856364 
L 416.477922 396.507273 
L 423.298396 485.46 
L 430.118869 99.998182 
L 436.939343 248.252727 
L 443.759817 277.903636 
L 450.58029 485.46 
L 457.400764 455.809091 
L 464.221238 515.110909 
L 471.041711 485.46 
L 477.862185 129.649091 
L 484.682659 277.903636 
L 491.503132 485.46 
L 498.323606 218.601818 
L 505.144079 188.950909 
L 511.964553 307.554545 
L 518.785027 99.998182 
L 525.6055 396.507273 
L 532.425974 396.507273 
L 539.246448 99.998182 
L 546.066921 248.252727 
L 552.887395 188.950909 
L 559.707869 277.903636 
L 566.528342 544.761818 
L 573.348816 396.507273 
L 580.16929 159.3 
L 586.989763 426.158182 
L 593.810237 129.649091 
L 600.63071 426.158182 
L 607.451184 277.903636 
L 614.271658 129.649091 
L 621.092131 218.601818 
L 627.912605 307.554545 
L 634.733079 544.761818 
L 641.553552 366.856364 
L 648.374026 426.158182 
L 655.1945 307.554545 
L 662.014973 337.205455 
L 668.835447 337.205455 
L 675.655921 218.601818 
L 682.476394 277.903636 
L 689.296868 515.110909 
L 696.117341 129.649091 
L 702.937815 218.601818 
L 709.758289 426.158182 
L 716.578762 485.46 
L 723.399236 455.809091 
L 730.21971 426.158182 
L 737.040183 277.903636 
L 743.860657 248.252727 
L 750.681131 218.601818 
L 757.501604 129.649091 
L 764.322078 129.649091 
L 771.142552 366.856364 
L 777.963025 515.110909 
L 784.783499 218.601818 
L 791.603972 396.507273 
L 798.424446 248.252727 
L 805.24492 99.998182 
L 812.065393 277.903636 
L 818.885867 544.761818 
L 825.706341 337.205455 
L 832.526814 218.601818 
L 839.347288 455.809091 
L 846.167762 366.856364 
L 852.988235 426.158182 
L 859.808709 188.950909 
L 866.629183 248.252727 
L 873.449656 218.601818 
L 880.27013 366.856364 
L 887.090604 485.46 
L 893.911077 485.46 
L 900.731551 396.507273 
L 907.552024 248.252727 
L 914.372498 99.998182 
L 921.192972 99.998182 
L 928.013445 99.998182 
L 934.833919 337.205455 
L 941.654393 515.110909 
L 948.474866 515.110909 
L 955.29534 485.46 
L 962.115814 515.110909 
L 968.936287 485.46 
L 975.756761 396.507273 
L 982.577235 455.809091 
L 989.397708 218.601818 
L 996.218182 366.856364 
" style="fill:none;stroke:#1f77b4;stroke-linecap:square;stroke-width:1.5;"/>
   </g>
   <g id="patch_3">
    <path d="M 144 567 
L 144 77.76 
" style="fill:none;stroke:#000000;stroke-linecap:square;stroke-linejoin:miter;stroke-width:0.8;"/>
   </g>
   <g id="patch_4">
    <path d="M 1036.8 567 
L 1036.8 77.76 
" style="fill:none;stroke:#000000;stroke-linecap:square;stroke-linejoin:miter;stroke-width:0.8;"/>
   </g>
   <g id="patch_5">
    <path d="M 144 567 
L 1036.8 567 
" style="fill:none;stroke:#000000;stroke-linecap:square;stroke-linejoin:miter;stroke-width:0.8;"/>
   </g>
   <g id="patch_6">
    <path d="M 144 77.76 
L 1036.8 77.76 
" style="fill:none;stroke:#000000;stroke-linecap:square;stroke-linejoin:miter;stroke-width:0.8;"/>
   </g>
  </g>
 </g>
 <defs>
  <clipPath id="p05b1c41faa">
   <rect height="489.24" width="892.8" x="144" y="77.76"/>
  </clipPath>
 </defs>
</svg>
